<svg width="24" height="24" viewBox="0 0 24 24" fill="none" xmlns="http://www.w3.org/2000/svg">
<path fill-rule="evenodd" clip-rule="evenodd" d="M17.0252 16.0077L19.4689 18.4507C20.1478 19.1294 19.1297 20.1478 18.4508 19.469L16.0069 17.0258C13.0712 19.4471 8.74031 19.2621 6.01897 16.5407C3.11347 13.6352 3.11347 8.92447 6.01897 6.01897C8.92447 3.11347 13.6352 3.11347 16.5407 6.01897C19.2623 8.74058 19.4471 13.072 17.0252 16.0077ZM15.5225 7.0372C13.1793 4.69406 9.38035 4.69406 7.0372 7.0372C4.69406 9.38035 4.69406 13.1793 7.0372 15.5225C9.38035 17.8656 13.1793 17.8656 15.5225 15.5225C17.8656 13.1793 17.8656 9.38035 15.5225 7.0372Z" fill="white"/>
</svg>
